<svg width="45" height="47" viewBox="0 0 45 47" fill="none" xmlns="http://www.w3.org/2000/svg">
<path d="M7.89838 1.88402C7.89838 1.31705 7.4392 0.857422 6.87278 0.857422C6.30635 0.857422 5.84717 1.31705 5.84717 1.88402C5.84717 2.451 6.30635 2.91063 6.87278 2.91063C7.4392 2.91063 7.89838 2.451 7.89838 1.88402Z" fill="#57BFBB"/>
<path d="M26.2957 1.84375H9.47013C9.43503 2.52553 9.13975 3.1678 8.64524 3.63795C8.15072 4.10809 7.49473 4.37023 6.81271 4.37023C6.13069 4.37023 5.4747 4.10809 4.98019 3.63795C4.48567 3.1678 4.19039 2.52553 4.1553 1.84375C3.60932 1.84375 3.06869 1.95145 2.56432 2.1607C2.05995 2.36994 1.60171 2.67663 1.21581 3.06324C0.829911 3.44984 0.523908 3.90878 0.315292 4.41382C0.106677 4.91886 -0.000461591 5.4601 1.4948e-06 6.0066V28.359C1.40256e-06 33.0984 1.88063 37.6437 5.22828 40.9952C8.57593 44.3468 13.1164 46.2301 17.8512 46.2311H26.5319C28.8709 46.2311 31.1869 45.7699 33.3478 44.8738C35.5088 43.9777 37.4721 42.6643 39.1259 41.0087C40.7797 39.353 42.0914 37.3874 42.9862 35.2242C43.8809 33.061 44.3412 30.7426 44.3408 28.4014V19.9063C44.3408 15.1158 42.4396 10.5215 39.0555 7.13415C35.6714 3.74676 31.0816 1.84375 26.2957 1.84375Z" fill="#57BFBB"/>
<path d="M37.2501 15.8319C35.7647 16.593 34.1421 17.0488 32.478 17.1725C33.7468 14.6219 33.8561 12.1841 32.6965 9.72168C29.4893 12.0395 25.7992 12.3746 21.94 12.8967L23.5965 10.2932C21.1999 10.8224 18.9055 11.3233 16.5934 11.8031C13.5025 12.4416 10.7323 13.6905 10.0169 17.1619V12.7838C10.0169 12.8332 9.75607 13.0061 9.71377 13.0414L9.41772 13.313C9.23093 13.4894 9.04766 13.6658 8.87496 13.8598C8.54677 14.2109 8.2496 14.5898 7.9868 14.9923C7.50103 15.7205 7.16551 16.5385 6.99997 17.3983C6.8454 18.257 6.85856 19.1375 7.03873 19.9912C7.14012 20.5178 7.28633 21.0348 7.47576 21.5364C7.60264 21.8716 7.82821 22.1679 7.96566 22.4889C8.13114 22.8243 8.27592 23.1695 8.39916 23.5226C8.77841 24.5439 8.95325 25.63 8.91373 26.7188C8.86799 27.4808 8.63297 28.2192 8.22999 28.8673L7.31364 28.9908C7.25381 28.9991 7.19634 29.0198 7.1448 29.0513C7.09326 29.0829 7.04876 29.1247 7.01406 29.1742C6.9264 29.3391 6.88533 29.5247 6.89526 29.7112C6.9052 29.8977 6.96577 30.078 7.07045 30.2326C7.281 30.4925 7.40432 30.8122 7.4229 31.1463C7.45814 31.6225 7.47224 32.1023 7.49339 32.5821C7.51652 33.6624 7.74249 34.7287 8.1595 35.7254C8.33906 36.1523 8.63607 36.5193 9.01594 36.7838C9.36024 37.0314 9.74922 37.2099 10.1614 37.3094C10.6715 37.4284 11.1881 37.5179 11.7086 37.5775C12.8555 37.6992 14.0121 37.6992 15.159 37.5775C15.8972 37.5128 16.6243 37.3552 17.323 37.1083C17.6449 37.0048 17.9421 36.8361 18.1961 36.6128C18.4501 36.3894 18.6556 36.1162 18.7997 35.8101C18.9554 35.5059 19.0897 35.1911 19.2015 34.8681C19.4306 34.1273 19.6245 33.3759 19.8359 32.6315C19.8712 32.5115 19.9135 32.3951 19.9593 32.2787C19.992 32.1865 20.0513 32.1061 20.1297 32.0477C20.2082 31.9892 20.3022 31.9555 20.3998 31.9506C21.0696 31.873 21.746 31.873 22.4158 31.9506C22.5016 31.9572 22.5837 31.9878 22.6529 32.039C22.7221 32.0902 22.7755 32.1598 22.807 32.2399C22.8559 32.343 22.8983 32.449 22.9339 32.5574C23.0678 33.0407 23.2194 33.5205 23.3145 34.0109C23.446 34.5416 23.6266 35.0589 23.8538 35.5561C24.0081 35.945 24.2499 36.293 24.5604 36.5733C24.8709 36.8535 25.2418 37.0583 25.6442 37.1718C26.5575 37.4575 27.507 37.6108 28.4637 37.6269C29.3307 37.6446 30.1977 37.6269 31.0612 37.5599C31.7351 37.5291 32.4 37.3922 33.0314 37.1542C33.4248 37.0141 33.7823 36.7882 34.0779 36.4929C34.3735 36.1976 34.5999 35.8403 34.7407 35.4467C35.0712 34.5332 35.259 33.5741 35.2976 32.6033C35.3222 32.127 35.3399 31.6472 35.3681 31.1674C35.354 30.8902 35.4375 30.6167 35.6042 30.3948C35.709 30.2743 35.786 30.1322 35.8299 29.9786C35.8738 29.825 35.8833 29.6636 35.858 29.5058C35.8298 29.1283 35.7452 29.0155 35.3681 28.9731L34.4341 28.8708C34.4024 28.6662 34.3777 28.4651 34.3495 28.2922C34.25 27.6806 34.1911 27.0631 34.1733 26.4437C34.0836 24.4288 34.512 22.4245 35.4174 20.6227C35.7698 19.9171 36.1857 19.2116 36.5346 18.506C36.9227 17.7346 37.1619 16.8967 37.2395 16.0365C37.2388 15.9682 37.2424 15.8998 37.2501 15.8319ZM19.0852 32.7126C19.0344 33.1776 18.9279 33.6348 18.768 34.0744C18.6764 34.339 18.6447 34.6283 18.5566 34.8964C18.4799 35.1233 18.3832 35.3429 18.2675 35.5525C18.038 35.9896 17.6644 36.3336 17.2102 36.5262C16.6839 36.7442 16.1279 36.8821 15.5608 36.9355C14.5413 37.0594 13.5138 37.1042 12.4875 37.0695C11.8023 37.0553 11.1216 36.9558 10.4609 36.7732C9.91914 36.639 9.43142 36.3418 9.06343 35.9218C8.69544 35.5017 8.46484 34.9789 8.40269 34.4236C8.21912 33.4353 8.14583 32.4295 8.18417 31.425C8.20338 31.1174 8.25296 30.8125 8.3322 30.5148C8.36876 30.3333 8.45716 30.1664 8.58666 30.0343C8.71617 29.9021 8.88121 29.8105 9.06175 29.7704C9.51415 29.6544 9.97317 29.5661 10.4363 29.5058C11.1412 29.4282 11.8672 29.4 12.4734 29.3577C13.7885 29.3686 15.0996 29.5045 16.389 29.7634C16.9839 29.8922 17.5493 30.1315 18.0561 30.4689C18.4271 30.7022 18.722 31.0387 18.9048 31.4372C19.0876 31.8357 19.1503 32.279 19.0852 32.7126ZM20.3928 30.3984C19.6046 30.3368 18.8395 30.1032 18.1512 29.714C17.3031 29.2395 16.3658 28.9464 15.3987 28.8532C14.2751 28.7303 13.1454 28.6726 12.0152 28.6803L9.93581 28.7544C9.9781 27.4103 11.0108 25.4594 12.3359 24.267C14.803 26.7365 17.8834 27.696 21.3902 27.6749L18.3098 24.7997C20.3603 26.0018 22.6553 26.7253 25.0239 26.9164C27.4381 27.1422 29.736 26.7647 31.9846 25.1948L32.8833 28.772C31.0239 28.652 29.1577 28.6874 27.3042 28.8779C26.3451 28.9641 25.4165 29.2591 24.5833 29.7422C24.3865 29.8563 24.1801 29.9531 23.9665 30.0315C22.8231 30.4331 21.601 30.5588 20.3998 30.3984H20.3928ZM34.346 34.5154C34.2675 35.0749 34.0175 35.5962 33.6306 36.0076C33.2436 36.4189 32.7387 36.6999 32.1855 36.812C31.2445 37.0305 30.2781 37.1195 29.3131 37.0766C28.3675 37.0683 27.4242 36.9798 26.4936 36.812L26.3244 36.7767C25.7866 36.6896 25.2882 36.4403 24.8958 36.0621C24.5035 35.6838 24.2358 35.1946 24.1287 34.66C24.0018 34.1767 23.8502 33.7004 23.7516 33.2136C23.6376 32.769 23.6291 32.3038 23.7269 31.8554C23.8588 31.3173 24.1821 30.8457 24.6362 30.5289C25.2504 30.1096 25.9497 29.8313 26.6839 29.714C28.6833 29.3356 30.7311 29.288 32.7459 29.5729C33.0596 29.6187 33.3697 29.6963 33.6799 29.7704C33.8771 29.8131 34.0574 29.9132 34.1979 30.0582C34.3384 30.2032 34.4328 30.3867 34.4693 30.5853C34.5323 30.8163 34.5748 31.0524 34.5962 31.2909C34.6447 32.3716 34.563 33.4542 34.353 34.5154H34.346Z" fill="#203649"/>
<path d="M15.2007 34.529C15.1315 34.5253 15.064 34.506 15.0033 34.4725C14.8165 34.3808 14.6509 34.282 14.45 34.1832L14.1328 34.021L13.6499 33.7705L12.8041 33.3154C12.6875 33.2767 12.5909 33.1934 12.5355 33.0837C12.48 32.9739 12.4701 32.8467 12.508 32.7298C12.5116 32.6686 12.5311 32.6095 12.5644 32.5581C12.5978 32.5068 12.644 32.465 12.6984 32.437L13.5477 31.996C14.0235 31.7455 14.5134 31.488 14.9998 31.2445C15.0674 31.2089 15.142 31.1884 15.2183 31.1846C15.4263 31.1846 15.4721 31.428 15.4862 31.5726C15.5183 31.721 15.4933 31.8761 15.4162 32.0069C15.3391 32.1377 15.2156 32.2346 15.0703 32.2782C14.887 32.3523 14.7178 32.444 14.517 32.5463L14.2244 32.698L13.8931 32.8638L14.598 33.2166L15.3029 33.5694C15.3738 33.6091 15.4339 33.6656 15.4781 33.7338C15.5223 33.802 15.5493 33.88 15.5567 33.961C15.57 34.0442 15.5636 34.1295 15.5379 34.2098C15.5122 34.2901 15.4679 34.3632 15.4086 34.4231C15.3582 34.4739 15.2899 34.5031 15.2183 34.5043L15.2007 34.529Z" fill="#203649"/>
<path d="M30.7999 34.8249C30.7431 34.8251 30.6882 34.8051 30.6448 34.7685C30.5837 34.7241 30.5359 34.6638 30.5067 34.5941C30.4775 34.5244 30.468 34.4481 30.4791 34.3734C30.4784 34.2429 30.5194 34.1157 30.5961 34.0103C30.6729 33.9049 30.7813 33.8269 30.9056 33.7877C31.1197 33.7021 31.326 33.5982 31.5224 33.4773L31.7973 33.3256L32.118 33.1563L31.4695 32.8246C31.2263 32.6976 30.9902 32.5742 30.7646 32.4719C30.6936 32.4455 30.633 32.3969 30.5918 32.3334C30.5505 32.2698 30.5308 32.1947 30.5355 32.1191C30.5355 32.0697 30.5355 32.0168 30.5355 31.9638C30.5355 31.9109 30.5355 31.8439 30.5355 31.791C30.5374 31.7196 30.5673 31.6517 30.6187 31.6022C30.6702 31.5527 30.7391 31.5254 30.8104 31.5264C30.8528 31.5264 30.8947 31.5348 30.9338 31.5511C30.9739 31.5656 31.0128 31.5833 31.0501 31.604L31.7197 31.9039C32.2132 32.1579 32.7242 32.4225 33.2317 32.6729C33.3305 32.7123 33.4131 32.7839 33.4662 32.8761C33.5193 32.9683 33.5397 33.0757 33.5242 33.1809C33.5297 33.2726 33.5065 33.3636 33.4579 33.4414C33.4093 33.5191 33.3376 33.5798 33.2529 33.6149C32.8194 33.8265 32.3859 34.0488 31.9664 34.264L31.5188 34.4933L31.2721 34.6238L31.0078 34.7614C30.9501 34.796 30.8847 34.8154 30.8175 34.8179L30.7999 34.8249Z" fill="#203649"/>
<path d="M27.9273 35.0301H27.6841C27.6341 35.0287 27.585 35.0166 27.5401 34.9947C27.4951 34.9728 27.4553 34.9416 27.4233 34.9031C27.3993 34.8618 27.385 34.8156 27.3813 34.7679C27.3776 34.7203 27.3848 34.6724 27.4022 34.6279C27.4832 34.3457 27.5854 34.0564 27.7088 33.7354C27.9238 33.1815 28.1458 32.6276 28.3643 32.0773L28.6639 31.3259C28.7168 31.1953 28.7661 31.0648 28.8119 30.9378C28.8323 30.8674 28.8757 30.8059 28.9351 30.7631C28.9945 30.7202 29.0665 30.6985 29.1397 30.7014H29.3089H29.4463C29.4983 30.7001 29.5496 30.7125 29.5952 30.7373C29.6409 30.7621 29.6792 30.7985 29.7063 30.8428C29.7335 30.8871 29.7485 30.9378 29.7499 30.9898C29.7512 31.0418 29.7389 31.0932 29.7142 31.1389C29.6155 31.4105 29.5098 31.6822 29.4076 31.9503C29.3265 32.1584 29.2454 32.3701 29.1679 32.5782C29.0904 32.7864 29.034 32.9522 28.967 33.1356C28.8754 33.3861 28.7837 33.6437 28.6886 33.8941C28.5547 34.2469 28.4031 34.575 28.2762 34.8572C28.2269 34.9631 28.1493 35.0336 27.9238 35.0336L27.9273 35.0301Z" fill="#203649"/>
</svg>
